<svg xmlns="http://www.w3.org/2000/svg" viewBox="0 0 598.21 598.21"><defs><style>.cls-1{fill:#fff;}</style></defs><title>icon_fixture</title><g id="Layer_2" data-name="Layer 2"><g id="Layer_1-2" data-name="Layer 1"><circle class="cls-1" cx="299.1" cy="299.1" r="299.1" transform="translate(-123.89 299.1) rotate(-45)"/><path d="M185.68,109.37c0-2.48-1.47-4.49-3.3-4.49H159.19c-1.83,0-3.31,2-3.31,4.49V493.5c0,2.48,1.48,4.48,3.31,4.48h23.19c1.83,0,3.3-2,3.3-4.48Z"/><path d="M442.32,140.56C426,117.15,405.5,98.87,376.68,100.3c-22.86,1.13-43.19,12.07-62.55,21.27s-39.69,20.14-62.54,21.27c-23.07,1.15-40.79-10.32-55.31-26.94l-.12,192.24c11.74,9.53,25.42,15.55,41.81,15.33,24.85-.32,47-12.33,67.82-22.24,19.46-9.26,39.67-20,62.4-21.94,32.8-2.8,55.86,18.58,74,46.12Z"/></g></g></svg>