<svg xmlns="http://www.w3.org/2000/svg" viewBox="0 0 598.21 598.21"><defs><style>.cls-1{fill:#fff;}</style></defs><title>icon_referee</title><g id="Layer_2" data-name="Layer 2"><g id="Layer_1-2" data-name="Layer 1"><circle class="cls-1" cx="299.1" cy="299.1" r="299.1" transform="translate(-123.89 299.1) rotate(-45)"/><path d="M521,178.45H251.05v11.3h-27.6v-11.3a120.2,120.2,0,0,0-77.71,28.37,40.73,40.73,0,1,0-40.58,68.45A120.66,120.66,0,1,0,344.1,299.1c0-3.1-.12-6.18-.35-9.22L521,234.79ZM93.66,236.6a24.28,24.28,0,0,1,40.24-18.33,120.38,120.38,0,0,0-24.39,41.11A24.34,24.34,0,0,1,93.66,236.6ZM223.45,380.66A81.56,81.56,0,1,1,305,299.1,81.56,81.56,0,0,1,223.45,380.66Z"/><path d="M267.9,299.1a44.45,44.45,0,1,0-44.45,44.45A44.45,44.45,0,0,0,267.9,299.1Z"/></g></g></svg>