<svg xmlns="http://www.w3.org/2000/svg" viewBox="0 0 598.21 598.21"><defs><style>.cls-1{fill:#fff;}</style></defs><title>icon_fixture_1</title><g id="Layer_2" data-name="Layer 2"><g id="Layer_1-2" data-name="Layer 1"><circle class="cls-1" cx="299.1" cy="299.1" r="299.1" transform="translate(-123.89 299.1) rotate(-45)"/><path d="M299.1,105.28c-106.87,0-193.82,86.95-193.82,193.82S192.23,492.92,299.1,492.92,492.92,406,492.92,299.1,406,105.28,299.1,105.28ZM455.18,248.1l-26.64,61.06-47.61-6L339,227.56l18.19-43.65,65.36,8.45A543,543,0,0,1,455.18,248.1Zm-150-122.59a173.15,173.15,0,0,1,116,50.05l-.82,4.33-67.46-8.72a155.36,155.36,0,0,0-47.67-29Zm23,107.31,42.77,77.24c-10,20.24-20.48,32.78-33.59,51.49H255.56c-15.2-29.15-17-32.38-32.55-57.36l40.76-70.83C284.22,231.72,305.92,230.22,328.16,232.82ZM179.83,172.93a173.1,173.1,0,0,1,113.24-47.42v16.71c-20.17,7.81-33.57,13.48-52.4,26.27l-60.84,6.84Zm-4.08,13.79.14,1.19L237.41,181l16.36,45.55-42,73-42.23,2.38L143.4,245A383.19,383.19,0,0,1,175.75,186.72ZM125.39,299.1A173.17,173.17,0,0,1,132,251.72h1.23l26.87,58.51.54-.25a298.26,298.26,0,0,0,0,55.27l-17.8,9.51A172.62,172.62,0,0,1,125.39,299.1Zm124,166.44a174.53,174.53,0,0,1-100.93-80.12l16.94-9.05c13.77,11.3,30.3,21.05,50.84,30.59l34,58.09Zm12.8-3.88-33.88-58,24.94-30.09h84.13L368.63,410c-49.55,56.43-44,50.13-45.8,52.21C299.38,464.93,285.76,463.32,262.14,461.66Zm80,5.75-5.39-2.87,45.49-51.79c20.84-11.2,32.08-18.76,47.86-31.46l15.23,11.42A174.38,174.38,0,0,1,342.18,467.41Zm93.54-97a232.63,232.63,0,0,0,2-52.13l27.67-63.42h1.69a173.67,173.67,0,0,1-15.52,127.43Z"/></g></g></svg>