<svg xmlns="http://www.w3.org/2000/svg" viewBox="0 0 598.21 598.21"><defs><style>.cls-1{fill:#fff;}</style></defs><title>icon_player</title><g id="Layer_2" data-name="Layer 2"><g id="Layer_1-2" data-name="Layer 1"><circle class="cls-1" cx="299.1" cy="299.1" r="299.1" transform="translate(-123.89 299.1) rotate(-45)"/><path d="M324.18,321.77c-.5.55-1,1.1-1.53,1.63C323.17,322.87,323.68,322.32,324.18,321.77Z"/><path d="M268.47,314.23c-.4-.52-.79-1.06-1.16-1.6C267.68,313.17,268.07,313.71,268.47,314.23Z"/><path d="M270,316.19c-.42-.51-.83-1-1.22-1.53C269.17,315.18,269.58,315.68,270,316.19Z"/><path d="M310.49,333.22l-.75.51Z"/><path d="M326.51,319.1q-.84,1-1.71,2Q325.67,320.12,326.51,319.1Z"/><path d="M321.54,324.48c-.4.37-.78.76-1.18,1.13C320.76,325.24,321.14,324.85,321.54,324.48Z"/><path d="M328.6,316.42c-.58.78-1.17,1.56-1.79,2.31C327.43,318,328,317.2,328.6,316.42Z"/><path d="M264.58,308.31c-.32-.54-.61-1.1-.91-1.65C264,307.22,264.27,307.77,264.58,308.31Z"/><path d="M328.7,316.28a63.92,63.92,0,0,0,5.82-9.6c-.29.57-.56,1.14-.87,1.7A65.31,65.31,0,0,1,328.7,316.28Z"/><path d="M267.14,312.39q-.63-.92-1.23-1.86Q266.51,311.48,267.14,312.39Z"/><path d="M312.25,332c1.72-1.2,3.49-2.52,5.27-4h0l.41-.34-.45.37C315.71,329.53,314,330.85,312.25,332Z"/><path d="M275.21,321.92a102.34,102.34,0,0,0,24.11,17.65A102.34,102.34,0,0,1,275.21,321.92Z"/><path d="M265.86,310.45c-.42-.68-.84-1.37-1.24-2.07C265,309.08,265.44,309.77,265.86,310.45Z"/><path d="M360.87,392c0,18.7,19.56,26.78,19.56,26.78S400,411.82,400,392v-12.9H360.87Z"/><path d="M464.36,460.3c-1-43.33-5.42-102.4-8.27-110.78,0-.2-.1-.47-.18-.8-1.27-6.06-5.17-24.5-36-36.56-9.48-3.71-20.26-5.71-30.69-7.66-3.93-.73-8-1.49-11.93-2.33a22.41,22.41,0,0,1,.57,4.72l.09,6.61c3.12.63,6.23,1.22,9.26,1.79,10.38,1.93,20.19,3.75,28.7,7.09,25.31,9.9,28.29,24,29.26,28.6a17,17,0,0,0,.5,2c1.85,5.45,6.6,58.7,7.71,107.6.09,3.66.15,8-5.52,12.56-2.11-66-5.46-107.42-7.72-114,0-.18-.1-.41-.16-.71-1.15-5.37-4.65-21.7-32.34-32.39-8.52-3.28-18.2-5.06-27.57-6.78l-2.05-.38.13,9.91.11,0c9.33,1.72,18.14,3.33,25.79,6.28,22.74,8.78,25.41,21.25,26.29,25.35a16.26,16.26,0,0,0,.44,1.74c1.52,4.41,5.2,44.07,7.39,116.45-55.82,22.53-138.26,22.94-139.08,22.94s-87.55-.41-139.46-23.09c2.59-72.3,6.27-111.91,7.78-116.3a14.18,14.18,0,0,0,.44-1.74c.88-4.1,3.55-16.57,26.29-25.35,7.65-2.95,16.46-4.56,25.79-6.28l.11,0,.12-9.91-2,.38c-9.37,1.72-19.06,3.5-27.58,6.78-18.38,7.1-29.26,18-32.34,32.4-.06.29-.11.53-.13.61-2.28,6.6-5.63,48-8.1,113.77-5.33-4.49-5.26-8.69-5.18-12.27,1.13-48.92,5.87-102.16,7.72-107.6a15.56,15.56,0,0,0,.49-2c1-4.63,3.94-18.71,29.26-28.61,8.51-3.34,18.32-5.16,28.71-7.09,3-.57,6.14-1.16,9.26-1.79l.09-6.64a21.49,21.49,0,0,1,.56-4.69c-4,.84-8,1.6-11.92,2.33-10.43,1.95-21.21,3.95-30.69,7.66-20.46,8-32.57,20.31-36,36.57-.07.33-.12.59-.14.68-2.88,8.48-7.31,67.54-8.3,110.89-.14,6.05-.43,18.64,21.27,28.18,54.31,23.78,143.09,24,144,24s85.73-.27,143.86-24l.14,0C464.78,478.94,464.5,466.35,464.36,460.3Z"/><path d="M264.58,308.31a.25.25,0,0,1,0,.07c.4.7.82,1.39,1.24,2.07a.22.22,0,0,1,.05.08q.6.95,1.23,1.86l.17.24c.37.54.76,1.08,1.16,1.6.1.14.2.29.31.43.39.52.8,1,1.22,1.53.1.12.19.25.3.37,1.58,1.91,3.24,3.68,4.91,5.36a102.34,102.34,0,0,0,24.11,17.65,91.45,91.45,0,0,0,10.42-5.84l.75-.51c.58-.38,1.17-.77,1.76-1.18,1.71-1.19,3.46-2.51,5.23-3.94l.45-.37c.83-.69,1.64-1.4,2.43-2.12.4-.37.78-.76,1.18-1.13l1.11-1.08c.52-.53,1-1.08,1.53-1.63l.62-.66q.87-1,1.71-2l.3-.37c.62-.75,1.21-1.53,1.79-2.31l.1-.14a65.31,65.31,0,0,0,4.95-7.9c.31-.56.58-1.13.87-1.7a64,64,0,0,0,6.5-24.52c0-.12,0-.24.05-.36h0c0-.17,0-.34.07-.51-.18-1.07-.32-2.15-.43-3.27-.46-5.16-.85-10.33-1.21-15.51A230.43,230.43,0,0,0,351.29,238a217.47,217.47,0,0,0,7.78-21.67,4.49,4.49,0,0,0,2.19.79l2.15.2h.41c2.41,0,4.46-2,4.71-5.07l2.32-28.75a3.73,3.73,0,0,0-.23-1.57l.23-2.9a4.71,4.71,0,0,0-1.69-3.79l10.39-26.8A13.14,13.14,0,0,0,378,136.1L352.27,99.39a14,14,0,0,0-9.61-5.8c-12.54-1.74-41.13-5.71-55.28-7.77a14.36,14.36,0,0,0-9.67,2l-17,10.56-12.17-.08A14.11,14.11,0,0,0,236,105.64c-3.79,7.09-9.21,17.92-12.13,23.81A13.08,13.08,0,0,0,222.8,138c1.73,8.2,5.35,26,7.47,36.46a4.85,4.85,0,0,0-2.91,4.56l.22,2.89a3.77,3.77,0,0,0-.22,1.58l2.32,28.75c.25,3.1,2.3,5.07,4.71,5.07h.4l2.16-.2a4.49,4.49,0,0,0,2.19-.79A217.3,217.3,0,0,0,246.91,238a233.2,233.2,0,0,0,11.8,24.54c-.36,5.18-.75,10.35-1.21,15.51-.13,1.37-.32,2.69-.55,4,0,.13,0,.26,0,.4a.66.66,0,0,0,0,.14,57.78,57.78,0,0,0,6.67,24.12C264,307.21,264.26,307.77,264.58,308.31Z"/><path d="M226.14,306.94l-.32,24.61a1.8,1.8,0,0,0,1,1.63,1.82,1.82,0,0,0,1.89-.14l21.72-15.59h0c15,24.14,39.78,36.3,45.49,38.87l1.12.49,1.91.78,1.95-.69A93.64,93.64,0,0,0,318.19,348a108.53,108.53,0,0,0,9.95-7.23,88.71,88.71,0,0,0,20-22.89l21.35,15.21a1.76,1.76,0,0,0,1.05.34,1.77,1.77,0,0,0,.84-.21,1.46,1.46,0,0,0,.41-.29,1.79,1.79,0,0,0,.56-1.34l-.32-24.6a17.54,17.54,0,0,0-.12-1.78,16.53,16.53,0,0,0-5.8-10.66l-15.27-12.77a3.31,3.31,0,0,0-2.15-.78h-.3a1.62,1.62,0,0,0-1.62,1.53,69.72,69.72,0,0,1-25.18,49.7h0a91.88,91.88,0,0,1-8.56,6.29,93.43,93.43,0,0,1-13.86,7.5c-5.39-2.58-21-10.93-33.35-25.72a63.45,63.45,0,0,1-14.65-37.6,1.8,1.8,0,0,0-1.8-1.71h0a3.4,3.4,0,0,0-2.19.8L232,294.52A16.51,16.51,0,0,0,226.14,306.94Z"/></g></g></svg>