<svg xmlns="http://www.w3.org/2000/svg" viewBox="0 0 598.21 598.21"><defs><style>.cls-1{fill:#fff;}</style></defs><title>icon_result</title><g id="Layer_2" data-name="Layer 2"><g id="Layer_1-2" data-name="Layer 1"><circle class="cls-1" cx="299.1" cy="299.1" r="299.1"/><path d="M427.15,299.27c0-1.56,0-3.08,0-4.57H387.58c0,1.49,0,3,0,4.57s0,2.85,0,4.23h39.56C427.14,302.12,427.15,300.71,427.15,299.27Z"/><path d="M511.8,151.52H86.4a19.86,19.86,0,0,0-19.84,19.84V426.85A19.86,19.86,0,0,0,86.4,446.69H511.8a19.87,19.87,0,0,0,19.85-19.84V171.36A19.87,19.87,0,0,0,511.8,151.52Zm-4,271.36H90.37V175.33H507.84Z"/><path d="M208.88,266q0-10.11-5.44-15.54t-15-5.44q-9.47,0-15.06,5.71t-6.46,18.93l-30.12-3q2.69-25,16.89-35.83t35.51-10.87q23.34,0,36.69,12.59t13.34,31.31a54.59,54.59,0,0,1-3.82,20.28A69.48,69.48,0,0,1,230,294.7h35.93a7.46,7.46,0,0,0,7.47-7.47V196.42a7.46,7.46,0,0,0-7.47-7.47H111.74a7.46,7.46,0,0,0-7.47,7.47v90.81a7.46,7.46,0,0,0,7.47,7.47h81.94a88,88,0,0,0,9-10.23Q208.88,275.11,208.88,266Z"/><path d="M111.74,409.26H265.93a7.47,7.47,0,0,0,7.47-7.47V311a7.47,7.47,0,0,0-7.47-7.47H223.88l-.58.77q-5.49,7-19.8,20.12t-18.13,17.43a52.4,52.4,0,0,0-6.19,8.39h60v28.08h-106a73.06,73.06,0,0,1,10.33-30.18q8.6-14.25,34-37.82,3.88-3.62,7.19-6.79h-73a7.47,7.47,0,0,0-7.47,7.47v90.82A7.47,7.47,0,0,0,111.74,409.26Z"/><path d="M407.31,217.66q50.46,0,51.89,77h27.27a7.46,7.46,0,0,0,7.47-7.47V196.42a7.46,7.46,0,0,0-7.47-7.47H332.27a7.46,7.46,0,0,0-7.46,7.47v90.81a7.46,7.46,0,0,0,7.46,7.47H355.5Q356.84,217.66,407.31,217.66Z"/><path d="M422.36,255.05q-4.8-12.13-15.05-12.14-9.92,0-14.84,10.93-4.59,10.17-4.89,40.86h39.54Q426.81,266.3,422.36,255.05Z"/><path d="M407.31,355.29q10.92,0,15.38-12.29,4.15-11.46,4.44-39.5H387.57q.3,31,5.07,41Q397.73,355.29,407.31,355.29Z"/><path d="M332.27,409.26h154.2a7.47,7.47,0,0,0,7.47-7.47V311a7.47,7.47,0,0,0-7.47-7.47H459.2q-1.33,77-51.89,77.05-50.38,0-51.81-77.05H332.27a7.47,7.47,0,0,0-7.46,7.47v90.82A7.47,7.47,0,0,0,332.27,409.26Z"/><path d="M299.1,270.31a13.61,13.61,0,1,0-13.6-13.61A13.61,13.61,0,0,0,299.1,270.31Z"/><path d="M299.1,355.11a13.61,13.61,0,1,0-13.6-13.61A13.61,13.61,0,0,0,299.1,355.11Z"/></g></g></svg>